M48
METRIC,LZ,000.000
;FILE_FORMAT=3:3
;TYPE=PLATED
;Layer: PTH_Through
;EasyEDA v6.5.22, 2024-08-28 16:03:03
;922126ed66404cc7a2e17ea7cb8ccf87,fc1e3732016e4acc899c86b879ae2791,10
;Gerber Generator version 0.2
;Holesize 1 = 1.501 mm
T01C1.501
%
G05
G90
T01
X044250Y051460
X031748Y051460
X044250Y056540
X031748Y056540
X020451Y051460
X007949Y051460
X020451Y056540
X007949Y056540
X153252Y006461
X140750Y006461
X153252Y011541
X140750Y011541
X129450Y006461
X116948Y006461
X129450Y011541
X116948Y011541
X105650Y006461
X093148Y006461
X105650Y011541
X093148Y011541
X081850Y006461
X069348Y006461
X081850Y011541
X069348Y011541
X058050Y006461
X045548Y006461
X058050Y011541
X045548Y011541
X034250Y006461
X021748Y006461
X034250Y011541
X021748Y011541
X150750Y056540
X163252Y056540
X150750Y051460
X163252Y051460
X126948Y056540
X139450Y056540
X126948Y051460
X139450Y051460
X103148Y056540
X115650Y056540
X103148Y051460
X115650Y051460
X055548Y056540
X068050Y056540
X055548Y051460
X068050Y051460
X079348Y056540
X091850Y056540
X079348Y051460
X091850Y051460
M30
