G04 Layer: TopSilkscreenLayer*
G04 EasyEDA v6.5.22, 2024-08-28 16:03:03*
G04 922126ed66404cc7a2e17ea7cb8ccf87,fc1e3732016e4acc899c86b879ae2791,10*
G04 Gerber Generator version 0.2*
G04 Scale: 100 percent, Rotated: No, Reflected: No *
G04 Dimensions in millimeters *
G04 leading zeros omitted , absolute positions ,4 integer and 5 decimal *
%FSLAX45Y45*%
%MOMM*%

%ADD10C,0.1524*%
%ADD11C,0.2540*%

%LPD*%
D10*
X3800043Y4649698D02*
G01*
X3800043Y4758664D01*
X3727145Y4649698D02*
G01*
X3800043Y4722342D01*
X3774135Y4696434D02*
G01*
X3727145Y4758664D01*
X3692855Y4649698D02*
G01*
X3692855Y4758664D01*
X3692855Y4649698D02*
G01*
X3625545Y4649698D01*
X3692855Y4701514D02*
G01*
X3651453Y4701514D01*
X3692855Y4758664D02*
G01*
X3625545Y4758664D01*
X3591255Y4649698D02*
G01*
X3549599Y4701514D01*
X3549599Y4758664D01*
X3507943Y4649698D02*
G01*
X3549599Y4701514D01*
X3473653Y4670526D02*
G01*
X3463239Y4665192D01*
X3447745Y4649698D01*
X3447745Y4758664D01*
X3387547Y4649698D02*
G01*
X3403041Y4654778D01*
X3408375Y4665192D01*
X3408375Y4675606D01*
X3403041Y4686020D01*
X3392627Y4691100D01*
X3371799Y4696434D01*
X3356305Y4701514D01*
X3345891Y4711928D01*
X3340811Y4722342D01*
X3340811Y4738090D01*
X3345891Y4748250D01*
X3351225Y4753584D01*
X3366719Y4758664D01*
X3387547Y4758664D01*
X3403041Y4753584D01*
X3408375Y4748250D01*
X3413455Y4738090D01*
X3413455Y4722342D01*
X3408375Y4711928D01*
X3397961Y4701514D01*
X3382213Y4696434D01*
X3361385Y4691100D01*
X3351225Y4686020D01*
X3345891Y4675606D01*
X3345891Y4665192D01*
X3351225Y4654778D01*
X3366719Y4649698D01*
X3387547Y4649698D01*
X1420032Y4649698D02*
G01*
X1420032Y4758664D01*
X1347134Y4649698D02*
G01*
X1420032Y4722342D01*
X1394124Y4696434D02*
G01*
X1347134Y4758664D01*
X1312844Y4649698D02*
G01*
X1312844Y4758664D01*
X1312844Y4649698D02*
G01*
X1245534Y4649698D01*
X1312844Y4701514D02*
G01*
X1271442Y4701514D01*
X1312844Y4758664D02*
G01*
X1245534Y4758664D01*
X1211244Y4649698D02*
G01*
X1169588Y4701514D01*
X1169588Y4758664D01*
X1127932Y4649698D02*
G01*
X1169588Y4701514D01*
X1093642Y4670526D02*
G01*
X1083228Y4665192D01*
X1067734Y4649698D01*
X1067734Y4758664D01*
X960800Y4649698D02*
G01*
X1012616Y4758664D01*
X1033444Y4649698D02*
G01*
X960800Y4649698D01*
X14699843Y149580D02*
G01*
X14699843Y258800D01*
X14627199Y149580D02*
G01*
X14699843Y222478D01*
X14673935Y196316D02*
G01*
X14627199Y258800D01*
X14592909Y149580D02*
G01*
X14592909Y258800D01*
X14592909Y149580D02*
G01*
X14525345Y149580D01*
X14592909Y201650D02*
G01*
X14551253Y201650D01*
X14592909Y258800D02*
G01*
X14525345Y258800D01*
X14491055Y149580D02*
G01*
X14449653Y201650D01*
X14449653Y258800D01*
X14407997Y149580D02*
G01*
X14449653Y201650D01*
X14373707Y170408D02*
G01*
X14363293Y165328D01*
X14347799Y149580D01*
X14347799Y258800D01*
X14251025Y165328D02*
G01*
X14256359Y154914D01*
X14271853Y149580D01*
X14282267Y149580D01*
X14297761Y154914D01*
X14308175Y170408D01*
X14313509Y196316D01*
X14313509Y222478D01*
X14308175Y243052D01*
X14297761Y253466D01*
X14282267Y258800D01*
X14276933Y258800D01*
X14261439Y253466D01*
X14251025Y243052D01*
X14245945Y227558D01*
X14245945Y222478D01*
X14251025Y206730D01*
X14261439Y196316D01*
X14276933Y191236D01*
X14282267Y191236D01*
X14297761Y196316D01*
X14308175Y206730D01*
X14313509Y222478D01*
X12320087Y149580D02*
G01*
X12320087Y258800D01*
X12247189Y149580D02*
G01*
X12320087Y222478D01*
X12293925Y196316D02*
G01*
X12247189Y258800D01*
X12212899Y149580D02*
G01*
X12212899Y258800D01*
X12212899Y149580D02*
G01*
X12145335Y149580D01*
X12212899Y201650D02*
G01*
X12171497Y201650D01*
X12212899Y258800D02*
G01*
X12145335Y258800D01*
X12111045Y149580D02*
G01*
X12069643Y201650D01*
X12069643Y258800D01*
X12027987Y149580D02*
G01*
X12069643Y201650D01*
X11993697Y170408D02*
G01*
X11983283Y165328D01*
X11967789Y149580D01*
X11967789Y258800D01*
X11871015Y149580D02*
G01*
X11923085Y149580D01*
X11928165Y196316D01*
X11923085Y191236D01*
X11907337Y185902D01*
X11891843Y185902D01*
X11876349Y191236D01*
X11865935Y201650D01*
X11860601Y217144D01*
X11860601Y227558D01*
X11865935Y243052D01*
X11876349Y253466D01*
X11891843Y258800D01*
X11907337Y258800D01*
X11923085Y253466D01*
X11928165Y248386D01*
X11933499Y237972D01*
X9940076Y149580D02*
G01*
X9940076Y258800D01*
X9867178Y149580D02*
G01*
X9940076Y222478D01*
X9913914Y196316D02*
G01*
X9867178Y258800D01*
X9832888Y149580D02*
G01*
X9832888Y258800D01*
X9832888Y149580D02*
G01*
X9765324Y149580D01*
X9832888Y201650D02*
G01*
X9791486Y201650D01*
X9832888Y258800D02*
G01*
X9765324Y258800D01*
X9731034Y149580D02*
G01*
X9689632Y201650D01*
X9689632Y258800D01*
X9647976Y149580D02*
G01*
X9689632Y201650D01*
X9613686Y170408D02*
G01*
X9603272Y165328D01*
X9587778Y149580D01*
X9587778Y258800D01*
X9501418Y149580D02*
G01*
X9553488Y222478D01*
X9475510Y222478D01*
X9501418Y149580D02*
G01*
X9501418Y258800D01*
X7560066Y149580D02*
G01*
X7560066Y258800D01*
X7487168Y149580D02*
G01*
X7560066Y222478D01*
X7533904Y196316D02*
G01*
X7487168Y258800D01*
X7452878Y149580D02*
G01*
X7452878Y258800D01*
X7452878Y149580D02*
G01*
X7385314Y149580D01*
X7452878Y201650D02*
G01*
X7411476Y201650D01*
X7452878Y258800D02*
G01*
X7385314Y258800D01*
X7351024Y149580D02*
G01*
X7309622Y201650D01*
X7309622Y258800D01*
X7267966Y149580D02*
G01*
X7309622Y201650D01*
X7233676Y170408D02*
G01*
X7223262Y165328D01*
X7207768Y149580D01*
X7207768Y258800D01*
X7163064Y149580D02*
G01*
X7105914Y149580D01*
X7137156Y191236D01*
X7121408Y191236D01*
X7110994Y196316D01*
X7105914Y201650D01*
X7100580Y217144D01*
X7100580Y227558D01*
X7105914Y243052D01*
X7116328Y253466D01*
X7131822Y258800D01*
X7147570Y258800D01*
X7163064Y253466D01*
X7168144Y248386D01*
X7173478Y237972D01*
X5180055Y149580D02*
G01*
X5180055Y258800D01*
X5107157Y149580D02*
G01*
X5180055Y222478D01*
X5153893Y196316D02*
G01*
X5107157Y258800D01*
X5072867Y149580D02*
G01*
X5072867Y258800D01*
X5072867Y149580D02*
G01*
X5005303Y149580D01*
X5072867Y201650D02*
G01*
X5031465Y201650D01*
X5072867Y258800D02*
G01*
X5005303Y258800D01*
X4971013Y149580D02*
G01*
X4929611Y201650D01*
X4929611Y258800D01*
X4887955Y149580D02*
G01*
X4929611Y201650D01*
X4853665Y170408D02*
G01*
X4843251Y165328D01*
X4827757Y149580D01*
X4827757Y258800D01*
X4788133Y175742D02*
G01*
X4788133Y170408D01*
X4783053Y159994D01*
X4777973Y154914D01*
X4767559Y149580D01*
X4746731Y149580D01*
X4736317Y154914D01*
X4730983Y159994D01*
X4725903Y170408D01*
X4725903Y180822D01*
X4730983Y191236D01*
X4741397Y206730D01*
X4793467Y258800D01*
X4720823Y258800D01*
X2800045Y149580D02*
G01*
X2800045Y258800D01*
X2727147Y149580D02*
G01*
X2800045Y222478D01*
X2774137Y196316D02*
G01*
X2727147Y258800D01*
X2692857Y149580D02*
G01*
X2692857Y258800D01*
X2692857Y149580D02*
G01*
X2625547Y149580D01*
X2692857Y201650D02*
G01*
X2651455Y201650D01*
X2692857Y258800D02*
G01*
X2625547Y258800D01*
X2591257Y149580D02*
G01*
X2549601Y201650D01*
X2549601Y258800D01*
X2507945Y149580D02*
G01*
X2549601Y201650D01*
X2473655Y170408D02*
G01*
X2463241Y165328D01*
X2447747Y149580D01*
X2447747Y258800D01*
X2413457Y170408D02*
G01*
X2403043Y165328D01*
X2387549Y149580D01*
X2387549Y258800D01*
X15700095Y6150279D02*
G01*
X15700095Y6041313D01*
X15772739Y6150279D02*
G01*
X15700095Y6077635D01*
X15726003Y6103543D02*
G01*
X15772739Y6041313D01*
X15807029Y6150279D02*
G01*
X15807029Y6041313D01*
X15807029Y6150279D02*
G01*
X15874593Y6150279D01*
X15807029Y6098463D02*
G01*
X15848685Y6098463D01*
X15807029Y6041313D02*
G01*
X15874593Y6041313D01*
X15908883Y6150279D02*
G01*
X15950285Y6098463D01*
X15950285Y6041313D01*
X15991941Y6150279D02*
G01*
X15950285Y6098463D01*
X16098875Y6150279D02*
G01*
X16047059Y6041313D01*
X16026231Y6150279D02*
G01*
X16098875Y6150279D01*
X13319861Y6150279D02*
G01*
X13319861Y6041313D01*
X13392759Y6150279D02*
G01*
X13319861Y6077635D01*
X13346023Y6103543D02*
G01*
X13392759Y6041313D01*
X13427049Y6150279D02*
G01*
X13427049Y6041313D01*
X13427049Y6150279D02*
G01*
X13494613Y6150279D01*
X13427049Y6098463D02*
G01*
X13468451Y6098463D01*
X13427049Y6041313D02*
G01*
X13494613Y6041313D01*
X13528903Y6150279D02*
G01*
X13570305Y6098463D01*
X13570305Y6041313D01*
X13611961Y6150279D02*
G01*
X13570305Y6098463D01*
X13708481Y6134785D02*
G01*
X13703401Y6145199D01*
X13687907Y6150279D01*
X13677493Y6150279D01*
X13661745Y6145199D01*
X13651331Y6129451D01*
X13646251Y6103543D01*
X13646251Y6077635D01*
X13651331Y6056807D01*
X13661745Y6046393D01*
X13677493Y6041313D01*
X13682573Y6041313D01*
X13698321Y6046393D01*
X13708481Y6056807D01*
X13713815Y6072301D01*
X13713815Y6077635D01*
X13708481Y6093129D01*
X13698321Y6103543D01*
X13682573Y6108877D01*
X13677493Y6108877D01*
X13661745Y6103543D01*
X13651331Y6093129D01*
X13646251Y6077635D01*
X10939881Y6150279D02*
G01*
X10939881Y6041313D01*
X11012779Y6150279D02*
G01*
X10939881Y6077635D01*
X10966043Y6103543D02*
G01*
X11012779Y6041313D01*
X11047069Y6150279D02*
G01*
X11047069Y6041313D01*
X11047069Y6150279D02*
G01*
X11114633Y6150279D01*
X11047069Y6098463D02*
G01*
X11088471Y6098463D01*
X11047069Y6041313D02*
G01*
X11114633Y6041313D01*
X11148923Y6150279D02*
G01*
X11190325Y6098463D01*
X11190325Y6041313D01*
X11231981Y6150279D02*
G01*
X11190325Y6098463D01*
X11328501Y6150279D02*
G01*
X11276685Y6150279D01*
X11271351Y6103543D01*
X11276685Y6108877D01*
X11292179Y6113957D01*
X11307927Y6113957D01*
X11323421Y6108877D01*
X11333835Y6098463D01*
X11338915Y6082715D01*
X11338915Y6072301D01*
X11333835Y6056807D01*
X11323421Y6046393D01*
X11307927Y6041313D01*
X11292179Y6041313D01*
X11276685Y6046393D01*
X11271351Y6051727D01*
X11266271Y6061887D01*
X6179921Y6150279D02*
G01*
X6179921Y6041313D01*
X6252819Y6150279D02*
G01*
X6179921Y6077635D01*
X6206083Y6103543D02*
G01*
X6252819Y6041313D01*
X6287109Y6150279D02*
G01*
X6287109Y6041313D01*
X6287109Y6150279D02*
G01*
X6354673Y6150279D01*
X6287109Y6098463D02*
G01*
X6328511Y6098463D01*
X6287109Y6041313D02*
G01*
X6354673Y6041313D01*
X6388963Y6150279D02*
G01*
X6430365Y6098463D01*
X6430365Y6041313D01*
X6472021Y6150279D02*
G01*
X6430365Y6098463D01*
X6558127Y6150279D02*
G01*
X6506311Y6077635D01*
X6584289Y6077635D01*
X6558127Y6150279D02*
G01*
X6558127Y6041313D01*
X8559901Y6150279D02*
G01*
X8559901Y6041313D01*
X8632799Y6150279D02*
G01*
X8559901Y6077635D01*
X8586063Y6103543D02*
G01*
X8632799Y6041313D01*
X8667089Y6150279D02*
G01*
X8667089Y6041313D01*
X8667089Y6150279D02*
G01*
X8734653Y6150279D01*
X8667089Y6098463D02*
G01*
X8708491Y6098463D01*
X8667089Y6041313D02*
G01*
X8734653Y6041313D01*
X8768943Y6150279D02*
G01*
X8810345Y6098463D01*
X8810345Y6041313D01*
X8852001Y6150279D02*
G01*
X8810345Y6098463D01*
X8896705Y6150279D02*
G01*
X8953855Y6150279D01*
X8922613Y6108877D01*
X8938107Y6108877D01*
X8948521Y6103543D01*
X8953855Y6098463D01*
X8958935Y6082715D01*
X8958935Y6072301D01*
X8953855Y6056807D01*
X8943441Y6046393D01*
X8927947Y6041313D01*
X8912199Y6041313D01*
X8896705Y6046393D01*
X8891371Y6051727D01*
X8886291Y6061887D01*
D11*
X4299940Y4799964D02*
G01*
X3299942Y4799964D01*
X3299942Y5999962D02*
G01*
X4299940Y5999962D01*
X4330801Y4914823D02*
G01*
X4282541Y4866563D01*
X4300321Y4800523D02*
G01*
X4399381Y4899583D01*
X3299561Y4800523D02*
G01*
X3200501Y4899583D01*
X4399381Y5900343D02*
G01*
X4300321Y5999403D01*
X3200501Y5900343D02*
G01*
X3299561Y5999403D01*
X3200501Y4899583D02*
G01*
X3200501Y5015349D01*
X3200501Y5276578D02*
G01*
X3200501Y5523349D01*
X3200501Y5784578D02*
G01*
X3200501Y5900343D01*
X4282541Y4866563D02*
G01*
X3317341Y4866563D01*
X3269081Y4914823D01*
X3269081Y4914823D02*
G01*
X3269081Y5052052D01*
X3269081Y5239875D02*
G01*
X3269081Y5560052D01*
X3269081Y5747875D02*
G01*
X3269081Y5885103D01*
X3269081Y5885103D02*
G01*
X3317341Y5933363D01*
X4282541Y5933363D01*
X4330801Y5885103D01*
X4330801Y4914823D02*
G01*
X4330801Y5052052D01*
X4330801Y5239875D02*
G01*
X4330801Y5560052D01*
X4330801Y5747875D02*
G01*
X4330801Y5894047D01*
X4399381Y4899583D02*
G01*
X4399381Y5015349D01*
X4399381Y5276578D02*
G01*
X4399381Y5523349D01*
X4399381Y5784578D02*
G01*
X4399381Y5901613D01*
X1919960Y4799964D02*
G01*
X919962Y4799964D01*
X919962Y5999962D02*
G01*
X1919960Y5999962D01*
X1950821Y4914823D02*
G01*
X1902561Y4866563D01*
X1920341Y4800523D02*
G01*
X2019401Y4899583D01*
X919581Y4800523D02*
G01*
X820521Y4899583D01*
X2019401Y5900343D02*
G01*
X1920341Y5999403D01*
X820521Y5900343D02*
G01*
X919581Y5999403D01*
X820521Y4899583D02*
G01*
X820521Y5015349D01*
X820521Y5276578D02*
G01*
X820521Y5523349D01*
X820521Y5784578D02*
G01*
X820521Y5900343D01*
X1902561Y4866563D02*
G01*
X937361Y4866563D01*
X889101Y4914823D01*
X889101Y4914823D02*
G01*
X889101Y5052052D01*
X889101Y5239875D02*
G01*
X889101Y5560052D01*
X889101Y5747875D02*
G01*
X889101Y5885103D01*
X889101Y5885103D02*
G01*
X937361Y5933363D01*
X1902561Y5933363D01*
X1950821Y5885103D01*
X1950821Y4914823D02*
G01*
X1950821Y5052052D01*
X1950821Y5239875D02*
G01*
X1950821Y5560052D01*
X1950821Y5747875D02*
G01*
X1950821Y5894047D01*
X2019401Y4899583D02*
G01*
X2019401Y5015349D01*
X2019401Y5276578D02*
G01*
X2019401Y5523349D01*
X2019401Y5784578D02*
G01*
X2019401Y5901613D01*
X15200096Y300101D02*
G01*
X14200098Y300101D01*
X14200098Y1500098D02*
G01*
X15200096Y1500098D01*
X15230957Y414959D02*
G01*
X15182697Y366699D01*
X15200477Y300659D02*
G01*
X15299537Y399719D01*
X14199717Y300659D02*
G01*
X14100657Y399719D01*
X15299537Y1400479D02*
G01*
X15200477Y1499539D01*
X14100657Y1400479D02*
G01*
X14199717Y1499539D01*
X14100657Y399719D02*
G01*
X14100657Y515485D01*
X14100657Y776714D02*
G01*
X14100657Y1023485D01*
X14100657Y1284714D02*
G01*
X14100657Y1400479D01*
X15182697Y366699D02*
G01*
X14217497Y366699D01*
X14169237Y414959D01*
X14169237Y414959D02*
G01*
X14169237Y552188D01*
X14169237Y740011D02*
G01*
X14169237Y1060188D01*
X14169237Y1248011D02*
G01*
X14169237Y1385239D01*
X14169237Y1385239D02*
G01*
X14217497Y1433499D01*
X15182697Y1433499D01*
X15230957Y1385239D01*
X15230957Y414959D02*
G01*
X15230957Y552188D01*
X15230957Y740011D02*
G01*
X15230957Y1060188D01*
X15230957Y1248011D02*
G01*
X15230957Y1394183D01*
X15299537Y399719D02*
G01*
X15299537Y515485D01*
X15299537Y776714D02*
G01*
X15299537Y1023485D01*
X15299537Y1284714D02*
G01*
X15299537Y1401749D01*
X12819862Y300101D02*
G01*
X11819864Y300101D01*
X11819864Y1500098D02*
G01*
X12819862Y1500098D01*
X12850723Y414959D02*
G01*
X12802463Y366699D01*
X12820243Y300659D02*
G01*
X12919303Y399719D01*
X11819483Y300659D02*
G01*
X11720423Y399719D01*
X12919303Y1400479D02*
G01*
X12820243Y1499539D01*
X11720423Y1400479D02*
G01*
X11819483Y1499539D01*
X11720423Y399719D02*
G01*
X11720423Y515485D01*
X11720423Y776714D02*
G01*
X11720423Y1023485D01*
X11720423Y1284714D02*
G01*
X11720423Y1400479D01*
X12802463Y366699D02*
G01*
X11837263Y366699D01*
X11789003Y414959D01*
X11789003Y414959D02*
G01*
X11789003Y552188D01*
X11789003Y740011D02*
G01*
X11789003Y1060188D01*
X11789003Y1248011D02*
G01*
X11789003Y1385239D01*
X11789003Y1385239D02*
G01*
X11837263Y1433499D01*
X12802463Y1433499D01*
X12850723Y1385239D01*
X12850723Y414959D02*
G01*
X12850723Y552188D01*
X12850723Y740011D02*
G01*
X12850723Y1060188D01*
X12850723Y1248011D02*
G01*
X12850723Y1394183D01*
X12919303Y399719D02*
G01*
X12919303Y515485D01*
X12919303Y776714D02*
G01*
X12919303Y1023485D01*
X12919303Y1284714D02*
G01*
X12919303Y1401749D01*
X10439882Y300101D02*
G01*
X9439884Y300101D01*
X9439884Y1500098D02*
G01*
X10439882Y1500098D01*
X10470743Y414959D02*
G01*
X10422483Y366699D01*
X10440263Y300659D02*
G01*
X10539323Y399719D01*
X9439503Y300659D02*
G01*
X9340443Y399719D01*
X10539323Y1400479D02*
G01*
X10440263Y1499539D01*
X9340443Y1400479D02*
G01*
X9439503Y1499539D01*
X9340443Y399719D02*
G01*
X9340443Y515485D01*
X9340443Y776714D02*
G01*
X9340443Y1023485D01*
X9340443Y1284714D02*
G01*
X9340443Y1400479D01*
X10422483Y366699D02*
G01*
X9457283Y366699D01*
X9409023Y414959D01*
X9409023Y414959D02*
G01*
X9409023Y552188D01*
X9409023Y740011D02*
G01*
X9409023Y1060188D01*
X9409023Y1248011D02*
G01*
X9409023Y1385239D01*
X9409023Y1385239D02*
G01*
X9457283Y1433499D01*
X10422483Y1433499D01*
X10470743Y1385239D01*
X10470743Y414959D02*
G01*
X10470743Y552188D01*
X10470743Y740011D02*
G01*
X10470743Y1060188D01*
X10470743Y1248011D02*
G01*
X10470743Y1394183D01*
X10539323Y399719D02*
G01*
X10539323Y515485D01*
X10539323Y776714D02*
G01*
X10539323Y1023485D01*
X10539323Y1284714D02*
G01*
X10539323Y1401749D01*
X8059902Y300101D02*
G01*
X7059904Y300101D01*
X7059904Y1500098D02*
G01*
X8059902Y1500098D01*
X8090763Y414959D02*
G01*
X8042503Y366699D01*
X8060283Y300659D02*
G01*
X8159343Y399719D01*
X7059523Y300659D02*
G01*
X6960463Y399719D01*
X8159343Y1400479D02*
G01*
X8060283Y1499539D01*
X6960463Y1400479D02*
G01*
X7059523Y1499539D01*
X6960463Y399719D02*
G01*
X6960463Y515485D01*
X6960463Y776714D02*
G01*
X6960463Y1023485D01*
X6960463Y1284714D02*
G01*
X6960463Y1400479D01*
X8042503Y366699D02*
G01*
X7077303Y366699D01*
X7029043Y414959D01*
X7029043Y414959D02*
G01*
X7029043Y552188D01*
X7029043Y740011D02*
G01*
X7029043Y1060188D01*
X7029043Y1248011D02*
G01*
X7029043Y1385239D01*
X7029043Y1385239D02*
G01*
X7077303Y1433499D01*
X8042503Y1433499D01*
X8090763Y1385239D01*
X8090763Y414959D02*
G01*
X8090763Y552188D01*
X8090763Y740011D02*
G01*
X8090763Y1060188D01*
X8090763Y1248011D02*
G01*
X8090763Y1394183D01*
X8159343Y399719D02*
G01*
X8159343Y515485D01*
X8159343Y776714D02*
G01*
X8159343Y1023485D01*
X8159343Y1284714D02*
G01*
X8159343Y1401749D01*
X5679922Y300101D02*
G01*
X4679924Y300101D01*
X4679924Y1500098D02*
G01*
X5679922Y1500098D01*
X5710783Y414959D02*
G01*
X5662523Y366699D01*
X5680303Y300659D02*
G01*
X5779363Y399719D01*
X4679543Y300659D02*
G01*
X4580483Y399719D01*
X5779363Y1400479D02*
G01*
X5680303Y1499539D01*
X4580483Y1400479D02*
G01*
X4679543Y1499539D01*
X4580483Y399719D02*
G01*
X4580483Y515485D01*
X4580483Y776714D02*
G01*
X4580483Y1023485D01*
X4580483Y1284714D02*
G01*
X4580483Y1400479D01*
X5662523Y366699D02*
G01*
X4697323Y366699D01*
X4649063Y414959D01*
X4649063Y414959D02*
G01*
X4649063Y552188D01*
X4649063Y740011D02*
G01*
X4649063Y1060188D01*
X4649063Y1248011D02*
G01*
X4649063Y1385239D01*
X4649063Y1385239D02*
G01*
X4697323Y1433499D01*
X5662523Y1433499D01*
X5710783Y1385239D01*
X5710783Y414959D02*
G01*
X5710783Y552188D01*
X5710783Y740011D02*
G01*
X5710783Y1060188D01*
X5710783Y1248011D02*
G01*
X5710783Y1394183D01*
X5779363Y399719D02*
G01*
X5779363Y515485D01*
X5779363Y776714D02*
G01*
X5779363Y1023485D01*
X5779363Y1284714D02*
G01*
X5779363Y1401749D01*
X3299942Y300101D02*
G01*
X2299944Y300101D01*
X2299944Y1500098D02*
G01*
X3299942Y1500098D01*
X3330803Y414959D02*
G01*
X3282543Y366699D01*
X3300323Y300659D02*
G01*
X3399383Y399719D01*
X2299563Y300659D02*
G01*
X2200503Y399719D01*
X3399383Y1400479D02*
G01*
X3300323Y1499539D01*
X2200503Y1400479D02*
G01*
X2299563Y1499539D01*
X2200503Y399719D02*
G01*
X2200503Y515485D01*
X2200503Y776714D02*
G01*
X2200503Y1023485D01*
X2200503Y1284714D02*
G01*
X2200503Y1400479D01*
X3282543Y366699D02*
G01*
X2317343Y366699D01*
X2269083Y414959D01*
X2269083Y414959D02*
G01*
X2269083Y552188D01*
X2269083Y740011D02*
G01*
X2269083Y1060188D01*
X2269083Y1248011D02*
G01*
X2269083Y1385239D01*
X2269083Y1385239D02*
G01*
X2317343Y1433499D01*
X3282543Y1433499D01*
X3330803Y1385239D01*
X3330803Y414959D02*
G01*
X3330803Y552188D01*
X3330803Y740011D02*
G01*
X3330803Y1060188D01*
X3330803Y1248011D02*
G01*
X3330803Y1394183D01*
X3399383Y399719D02*
G01*
X3399383Y515485D01*
X3399383Y776714D02*
G01*
X3399383Y1023485D01*
X3399383Y1284714D02*
G01*
X3399383Y1401749D01*
X15200096Y5999962D02*
G01*
X16200094Y5999962D01*
X16200094Y4799964D02*
G01*
X15200096Y4799964D01*
X15169235Y5885103D02*
G01*
X15217495Y5933363D01*
X15199715Y5999403D02*
G01*
X15100655Y5900343D01*
X16200475Y5999403D02*
G01*
X16299535Y5900343D01*
X15100655Y4899583D02*
G01*
X15199715Y4800523D01*
X16299535Y4899583D02*
G01*
X16200475Y4800523D01*
X16299535Y5900343D02*
G01*
X16299535Y5784578D01*
X16299535Y5523349D02*
G01*
X16299535Y5276578D01*
X16299535Y5015349D02*
G01*
X16299535Y4899583D01*
X15217495Y5933363D02*
G01*
X16182695Y5933363D01*
X16230955Y5885103D01*
X16230955Y5885103D02*
G01*
X16230955Y5747875D01*
X16230955Y5560052D02*
G01*
X16230955Y5239875D01*
X16230955Y5052052D02*
G01*
X16230955Y4914823D01*
X16230955Y4914823D02*
G01*
X16182695Y4866563D01*
X15217495Y4866563D01*
X15169235Y4914823D01*
X15169235Y5885103D02*
G01*
X15169235Y5747875D01*
X15169235Y5560052D02*
G01*
X15169235Y5239875D01*
X15169235Y5052052D02*
G01*
X15169235Y4905880D01*
X15100655Y5900343D02*
G01*
X15100655Y5784578D01*
X15100655Y5523349D02*
G01*
X15100655Y5276578D01*
X15100655Y5015349D02*
G01*
X15100655Y4898313D01*
X12819862Y5999962D02*
G01*
X13819860Y5999962D01*
X13819860Y4799964D02*
G01*
X12819862Y4799964D01*
X12789001Y5885103D02*
G01*
X12837261Y5933363D01*
X12819481Y5999403D02*
G01*
X12720421Y5900343D01*
X13820241Y5999403D02*
G01*
X13919301Y5900343D01*
X12720421Y4899583D02*
G01*
X12819481Y4800523D01*
X13919301Y4899583D02*
G01*
X13820241Y4800523D01*
X13919301Y5900343D02*
G01*
X13919301Y5784578D01*
X13919301Y5523349D02*
G01*
X13919301Y5276578D01*
X13919301Y5015349D02*
G01*
X13919301Y4899583D01*
X12837261Y5933363D02*
G01*
X13802461Y5933363D01*
X13850721Y5885103D01*
X13850721Y5885103D02*
G01*
X13850721Y5747875D01*
X13850721Y5560052D02*
G01*
X13850721Y5239875D01*
X13850721Y5052052D02*
G01*
X13850721Y4914823D01*
X13850721Y4914823D02*
G01*
X13802461Y4866563D01*
X12837261Y4866563D01*
X12789001Y4914823D01*
X12789001Y5885103D02*
G01*
X12789001Y5747875D01*
X12789001Y5560052D02*
G01*
X12789001Y5239875D01*
X12789001Y5052052D02*
G01*
X12789001Y4905880D01*
X12720421Y5900343D02*
G01*
X12720421Y5784578D01*
X12720421Y5523349D02*
G01*
X12720421Y5276578D01*
X12720421Y5015349D02*
G01*
X12720421Y4898313D01*
X10439882Y5999962D02*
G01*
X11439880Y5999962D01*
X11439880Y4799964D02*
G01*
X10439882Y4799964D01*
X10409021Y5885103D02*
G01*
X10457281Y5933363D01*
X10439501Y5999403D02*
G01*
X10340441Y5900343D01*
X11440261Y5999403D02*
G01*
X11539321Y5900343D01*
X10340441Y4899583D02*
G01*
X10439501Y4800523D01*
X11539321Y4899583D02*
G01*
X11440261Y4800523D01*
X11539321Y5900343D02*
G01*
X11539321Y5784578D01*
X11539321Y5523349D02*
G01*
X11539321Y5276578D01*
X11539321Y5015349D02*
G01*
X11539321Y4899583D01*
X10457281Y5933363D02*
G01*
X11422481Y5933363D01*
X11470741Y5885103D01*
X11470741Y5885103D02*
G01*
X11470741Y5747875D01*
X11470741Y5560052D02*
G01*
X11470741Y5239875D01*
X11470741Y5052052D02*
G01*
X11470741Y4914823D01*
X11470741Y4914823D02*
G01*
X11422481Y4866563D01*
X10457281Y4866563D01*
X10409021Y4914823D01*
X10409021Y5885103D02*
G01*
X10409021Y5747875D01*
X10409021Y5560052D02*
G01*
X10409021Y5239875D01*
X10409021Y5052052D02*
G01*
X10409021Y4905880D01*
X10340441Y5900343D02*
G01*
X10340441Y5784578D01*
X10340441Y5523349D02*
G01*
X10340441Y5276578D01*
X10340441Y5015349D02*
G01*
X10340441Y4898313D01*
X5679922Y5999962D02*
G01*
X6679920Y5999962D01*
X6679920Y4799964D02*
G01*
X5679922Y4799964D01*
X5649061Y5885103D02*
G01*
X5697321Y5933363D01*
X5679541Y5999403D02*
G01*
X5580481Y5900343D01*
X6680301Y5999403D02*
G01*
X6779361Y5900343D01*
X5580481Y4899583D02*
G01*
X5679541Y4800523D01*
X6779361Y4899583D02*
G01*
X6680301Y4800523D01*
X6779361Y5900343D02*
G01*
X6779361Y5784578D01*
X6779361Y5523349D02*
G01*
X6779361Y5276578D01*
X6779361Y5015349D02*
G01*
X6779361Y4899583D01*
X5697321Y5933363D02*
G01*
X6662521Y5933363D01*
X6710781Y5885103D01*
X6710781Y5885103D02*
G01*
X6710781Y5747875D01*
X6710781Y5560052D02*
G01*
X6710781Y5239875D01*
X6710781Y5052052D02*
G01*
X6710781Y4914823D01*
X6710781Y4914823D02*
G01*
X6662521Y4866563D01*
X5697321Y4866563D01*
X5649061Y4914823D01*
X5649061Y5885103D02*
G01*
X5649061Y5747875D01*
X5649061Y5560052D02*
G01*
X5649061Y5239875D01*
X5649061Y5052052D02*
G01*
X5649061Y4905880D01*
X5580481Y5900343D02*
G01*
X5580481Y5784578D01*
X5580481Y5523349D02*
G01*
X5580481Y5276578D01*
X5580481Y5015349D02*
G01*
X5580481Y4898313D01*
X8059902Y5999962D02*
G01*
X9059900Y5999962D01*
X9059900Y4799964D02*
G01*
X8059902Y4799964D01*
X8029041Y5885103D02*
G01*
X8077301Y5933363D01*
X8059521Y5999403D02*
G01*
X7960461Y5900343D01*
X9060281Y5999403D02*
G01*
X9159341Y5900343D01*
X7960461Y4899583D02*
G01*
X8059521Y4800523D01*
X9159341Y4899583D02*
G01*
X9060281Y4800523D01*
X9159341Y5900343D02*
G01*
X9159341Y5784578D01*
X9159341Y5523349D02*
G01*
X9159341Y5276578D01*
X9159341Y5015349D02*
G01*
X9159341Y4899583D01*
X8077301Y5933363D02*
G01*
X9042501Y5933363D01*
X9090761Y5885103D01*
X9090761Y5885103D02*
G01*
X9090761Y5747875D01*
X9090761Y5560052D02*
G01*
X9090761Y5239875D01*
X9090761Y5052052D02*
G01*
X9090761Y4914823D01*
X9090761Y4914823D02*
G01*
X9042501Y4866563D01*
X8077301Y4866563D01*
X8029041Y4914823D01*
X8029041Y5885103D02*
G01*
X8029041Y5747875D01*
X8029041Y5560052D02*
G01*
X8029041Y5239875D01*
X8029041Y5052052D02*
G01*
X8029041Y4905880D01*
X7960461Y5900343D02*
G01*
X7960461Y5784578D01*
X7960461Y5523349D02*
G01*
X7960461Y5276578D01*
X7960461Y5015349D02*
G01*
X7960461Y4898313D01*
G75*
G01
X4282542Y4993564D02*
G03X4282542Y4993564I-76200J0D01*
G75*
G01
X3469742Y4993564D02*
G03X3469742Y4993564I-76200J0D01*
G75*
G01
X4282542Y5806364D02*
G03X4282542Y5806364I-76200J0D01*
G75*
G01
X3469742Y5806364D02*
G03X3469742Y5806364I-76200J0D01*
G75*
G01
X4155542Y5399964D02*
G03X4155542Y5399964I-355600J0D01*
G75*
G01
X1902562Y4993564D02*
G03X1902562Y4993564I-76200J0D01*
G75*
G01
X1089762Y4993564D02*
G03X1089762Y4993564I-76200J0D01*
G75*
G01
X1902562Y5806364D02*
G03X1902562Y5806364I-76200J0D01*
G75*
G01
X1089762Y5806364D02*
G03X1089762Y5806364I-76200J0D01*
G75*
G01
X1775562Y5399964D02*
G03X1775562Y5399964I-355600J0D01*
G75*
G01
X15182698Y493700D02*
G03X15182698Y493700I-76200J0D01*
G75*
G01
X14369898Y493700D02*
G03X14369898Y493700I-76200J0D01*
G75*
G01
X15182698Y1306500D02*
G03X15182698Y1306500I-76200J0D01*
G75*
G01
X14369898Y1306500D02*
G03X14369898Y1306500I-76200J0D01*
G75*
G01
X15055698Y900100D02*
G03X15055698Y900100I-355600J0D01*
G75*
G01
X12802464Y493700D02*
G03X12802464Y493700I-76200J0D01*
G75*
G01
X11989664Y493700D02*
G03X11989664Y493700I-76200J0D01*
G75*
G01
X12802464Y1306500D02*
G03X12802464Y1306500I-76200J0D01*
G75*
G01
X11989664Y1306500D02*
G03X11989664Y1306500I-76200J0D01*
G75*
G01
X12675464Y900100D02*
G03X12675464Y900100I-355600J0D01*
G75*
G01
X10422484Y493700D02*
G03X10422484Y493700I-76200J0D01*
G75*
G01
X9609684Y493700D02*
G03X9609684Y493700I-76200J0D01*
G75*
G01
X10422484Y1306500D02*
G03X10422484Y1306500I-76200J0D01*
G75*
G01
X9609684Y1306500D02*
G03X9609684Y1306500I-76200J0D01*
G75*
G01
X10295484Y900100D02*
G03X10295484Y900100I-355600J0D01*
G75*
G01
X8042504Y493700D02*
G03X8042504Y493700I-76200J0D01*
G75*
G01
X7229704Y493700D02*
G03X7229704Y493700I-76200J0D01*
G75*
G01
X8042504Y1306500D02*
G03X8042504Y1306500I-76200J0D01*
G75*
G01
X7229704Y1306500D02*
G03X7229704Y1306500I-76200J0D01*
G75*
G01
X7915504Y900100D02*
G03X7915504Y900100I-355600J0D01*
G75*
G01
X5662524Y493700D02*
G03X5662524Y493700I-76200J0D01*
G75*
G01
X4849724Y493700D02*
G03X4849724Y493700I-76200J0D01*
G75*
G01
X5662524Y1306500D02*
G03X5662524Y1306500I-76200J0D01*
G75*
G01
X4849724Y1306500D02*
G03X4849724Y1306500I-76200J0D01*
G75*
G01
X5535524Y900100D02*
G03X5535524Y900100I-355600J0D01*
G75*
G01
X3282544Y493700D02*
G03X3282544Y493700I-76200J0D01*
G75*
G01
X2469744Y493700D02*
G03X2469744Y493700I-76200J0D01*
G75*
G01
X3282544Y1306500D02*
G03X3282544Y1306500I-76200J0D01*
G75*
G01
X2469744Y1306500D02*
G03X2469744Y1306500I-76200J0D01*
G75*
G01
X3155544Y900100D02*
G03X3155544Y900100I-355600J0D01*
G75*
G01
X15369896Y5806364D02*
G03X15369896Y5806364I-76200J0D01*
G75*
G01
X16182696Y5806364D02*
G03X16182696Y5806364I-76200J0D01*
G75*
G01
X15369896Y4993564D02*
G03X15369896Y4993564I-76200J0D01*
G75*
G01
X16182696Y4993564D02*
G03X16182696Y4993564I-76200J0D01*
G75*
G01
X16055696Y5399964D02*
G03X16055696Y5399964I-355600J0D01*
G75*
G01
X12989662Y5806364D02*
G03X12989662Y5806364I-76200J0D01*
G75*
G01
X13802462Y5806364D02*
G03X13802462Y5806364I-76200J0D01*
G75*
G01
X12989662Y4993564D02*
G03X12989662Y4993564I-76200J0D01*
G75*
G01
X13802462Y4993564D02*
G03X13802462Y4993564I-76200J0D01*
G75*
G01
X13675462Y5399964D02*
G03X13675462Y5399964I-355600J0D01*
G75*
G01
X10609682Y5806364D02*
G03X10609682Y5806364I-76200J0D01*
G75*
G01
X11422482Y5806364D02*
G03X11422482Y5806364I-76200J0D01*
G75*
G01
X10609682Y4993564D02*
G03X10609682Y4993564I-76200J0D01*
G75*
G01
X11422482Y4993564D02*
G03X11422482Y4993564I-76200J0D01*
G75*
G01
X11295482Y5399964D02*
G03X11295482Y5399964I-355600J0D01*
G75*
G01
X5849722Y5806364D02*
G03X5849722Y5806364I-76200J0D01*
G75*
G01
X6662522Y5806364D02*
G03X6662522Y5806364I-76200J0D01*
G75*
G01
X5849722Y4993564D02*
G03X5849722Y4993564I-76200J0D01*
G75*
G01
X6662522Y4993564D02*
G03X6662522Y4993564I-76200J0D01*
G75*
G01
X6535522Y5399964D02*
G03X6535522Y5399964I-355600J0D01*
G75*
G01
X8229702Y5806364D02*
G03X8229702Y5806364I-76200J0D01*
G75*
G01
X9042502Y5806364D02*
G03X9042502Y5806364I-76200J0D01*
G75*
G01
X8229702Y4993564D02*
G03X8229702Y4993564I-76200J0D01*
G75*
G01
X9042502Y4993564D02*
G03X9042502Y4993564I-76200J0D01*
G75*
G01
X8915502Y5399964D02*
G03X8915502Y5399964I-355600J0D01*
M02*
