G04 Layer: BottomSolderMaskLayer*
G04 EasyEDA v6.5.22, 2024-08-28 16:03:03*
G04 922126ed66404cc7a2e17ea7cb8ccf87,fc1e3732016e4acc899c86b879ae2791,10*
G04 Gerber Generator version 0.2*
G04 Scale: 100 percent, Rotated: No, Reflected: No *
G04 Dimensions in millimeters *
G04 leading zeros omitted , absolute positions ,4 integer and 5 decimal *
%FSLAX45Y45*%
%MOMM*%

%ADD10C,3.6016*%

%LPD*%
D10*
G01*
X4425035Y5145963D03*
G01*
X3174847Y5145963D03*
G01*
X4425035Y5653963D03*
G01*
X3174847Y5653963D03*
G01*
X2045055Y5145963D03*
G01*
X794867Y5145963D03*
G01*
X2045055Y5653963D03*
G01*
X794867Y5653963D03*
G01*
X15325191Y646099D03*
G01*
X14075003Y646099D03*
G01*
X15325191Y1154099D03*
G01*
X14075003Y1154099D03*
G01*
X12944957Y646099D03*
G01*
X11694769Y646099D03*
G01*
X12944957Y1154099D03*
G01*
X11694769Y1154099D03*
G01*
X10564977Y646099D03*
G01*
X9314789Y646099D03*
G01*
X10564977Y1154099D03*
G01*
X9314789Y1154099D03*
G01*
X8184997Y646099D03*
G01*
X6934809Y646099D03*
G01*
X8184997Y1154099D03*
G01*
X6934809Y1154099D03*
G01*
X5805017Y646099D03*
G01*
X4554829Y646099D03*
G01*
X5805017Y1154099D03*
G01*
X4554829Y1154099D03*
G01*
X3425037Y646099D03*
G01*
X2174849Y646099D03*
G01*
X3425037Y1154099D03*
G01*
X2174849Y1154099D03*
G01*
X15075001Y5653963D03*
G01*
X16325189Y5653963D03*
G01*
X15075001Y5145963D03*
G01*
X16325189Y5145963D03*
G01*
X12694767Y5653963D03*
G01*
X13944955Y5653963D03*
G01*
X12694767Y5145963D03*
G01*
X13944955Y5145963D03*
G01*
X10314787Y5653963D03*
G01*
X11564975Y5653963D03*
G01*
X10314787Y5145963D03*
G01*
X11564975Y5145963D03*
G01*
X5554827Y5653963D03*
G01*
X6805015Y5653963D03*
G01*
X5554827Y5145963D03*
G01*
X6805015Y5145963D03*
G01*
X7934807Y5653963D03*
G01*
X9184995Y5653963D03*
G01*
X7934807Y5145963D03*
G01*
X9184995Y5145963D03*
M02*
