M48
METRIC,LZ,000.000
;FILE_FORMAT=3:3
;TYPE=PLATED
;Layer: PTH_Through
;EasyEDA v6.5.22, 2024-08-28 16:03:03
;fc1e3732016e4acc899c86b879ae2791,10
;Gerber Generator version 0.2
;Holesize 1 = 0.800 mm
T01C0.800
;Holesize 2 = 1.501 mm
T02C1.501
%
G05
G90
T01
X033490Y040000
X036030Y040000
X038570Y040000
X041110Y040000
X043650Y040000
X046190Y040000
X048730Y040000
X051270Y040000
X053810Y040000
X056350Y040000
X058890Y040000
X061430Y040000
X063970Y040000
X066510Y040000
X033490Y048000
X036030Y048000
X038570Y048000
X041110Y048000
X043650Y048000
X046190Y048000
X048730Y048000
X051270Y048000
X053810Y048000
X056350Y048000
X058890Y048000
X061430Y048000
X063970Y048000
X066510Y048000
X092044Y036887
X092044Y039427
X092044Y041967
X092044Y044507
X092044Y047047
X092044Y049587
T02
X053548Y010541
X066050Y010541
X053548Y005461
X066050Y005461
X029748Y010541
X042250Y010541
X029748Y005461
X042250Y005461
X005949Y010541
X018451Y010541
X005949Y005461
X018451Y005461
M30
