G04 Layer: BottomSolderMaskLayer*
G04 EasyEDA v6.5.22, 2024-08-28 16:03:03*
G04 fc1e3732016e4acc899c86b879ae2791,10*
G04 Gerber Generator version 0.2*
G04 Scale: 100 percent, Rotated: No, Reflected: No *
G04 Dimensions in millimeters *
G04 leading zeros omitted , absolute positions ,4 integer and 5 decimal *
%FSLAX45Y45*%
%MOMM*%

%ADD10C,2.1016*%
%ADD11C,3.6016*%

%LPD*%
D10*
G01*
X3348990Y3999992D03*
G01*
X3602990Y3999992D03*
G01*
X3856990Y3999992D03*
G01*
X4110990Y3999992D03*
G01*
X4364990Y3999992D03*
G01*
X4618990Y3999992D03*
G01*
X4872990Y3999992D03*
G01*
X5126990Y3999992D03*
G01*
X5380990Y3999992D03*
G01*
X5634990Y3999992D03*
G01*
X5888990Y3999992D03*
G01*
X6142990Y3999992D03*
G01*
X6396990Y3999992D03*
G01*
X6650990Y3999992D03*
G01*
X3348990Y4799990D03*
G01*
X3602990Y4799990D03*
G01*
X3856990Y4799990D03*
G01*
X4110990Y4799990D03*
G01*
X4364990Y4799990D03*
G01*
X4618990Y4799990D03*
G01*
X4872990Y4799990D03*
G01*
X5126990Y4799990D03*
G01*
X5380990Y4799990D03*
G01*
X5634990Y4799990D03*
G01*
X5888990Y4799990D03*
G01*
X6142990Y4799990D03*
G01*
X6396990Y4799990D03*
G01*
X6650990Y4799990D03*
G01*
X9204375Y3688664D03*
G01*
X9204375Y3942664D03*
G01*
X9204375Y4196664D03*
G01*
X9204375Y4450664D03*
G01*
X9204375Y4704664D03*
G01*
X9204375Y4958664D03*
D11*
G01*
X5354827Y1054100D03*
G01*
X6605015Y1054100D03*
G01*
X5354827Y546100D03*
G01*
X6605015Y546100D03*
G01*
X2974847Y1054100D03*
G01*
X4225036Y1054100D03*
G01*
X2974847Y546100D03*
G01*
X4225036Y546100D03*
G01*
X594868Y1054100D03*
G01*
X1845055Y1054100D03*
G01*
X594868Y546100D03*
G01*
X1845055Y546100D03*
M02*
