G04 Layer: BottomLayer*
G04 EasyEDA v6.5.22, 2024-08-28 16:03:03*
G04 fc1e3732016e4acc899c86b879ae2791,10*
G04 Gerber Generator version 0.2*
G04 Scale: 100 percent, Rotated: No, Reflected: No *
G04 Dimensions in millimeters *
G04 leading zeros omitted , absolute positions ,4 integer and 5 decimal *
%FSLAX45Y45*%
%MOMM*%

%ADD10C,0.8000*%
%ADD11C,2.0000*%
%ADD12C,3.5000*%

%LPD*%
D10*
X4618992Y4800089D02*
G01*
X4618992Y5081015D01*
X3899915Y5800089D01*
X2800101Y5800089D01*
X399999Y3399995D01*
X-99999Y3399995D01*
X5126992Y4799990D02*
G01*
X5126992Y5172991D01*
X4099991Y6199985D01*
X2599989Y6199985D01*
X199999Y3799989D01*
X-99999Y3799989D01*
X4872992Y4800089D02*
G01*
X4872992Y5126989D01*
X3999991Y5999985D01*
X2699989Y5999985D01*
X299999Y3599990D01*
X-99999Y3599990D01*
X4364992Y4799990D02*
G01*
X4364992Y5034991D01*
X3799992Y5599991D01*
X2899991Y5599991D01*
X500001Y3199996D01*
X-99999Y3199996D01*
X4110992Y4799990D02*
G01*
X4110992Y4988989D01*
X3699990Y5399991D01*
X2999991Y5399991D01*
X600001Y2999996D01*
X-99999Y2999996D01*
X3856992Y4800089D02*
G01*
X3856992Y4943096D01*
X3599941Y5199885D01*
X3100064Y5199885D01*
X700026Y2800093D01*
X-99999Y2799994D01*
X3602992Y4799990D02*
G01*
X3602992Y4896995D01*
X3499990Y4999989D01*
X3199991Y4999989D01*
X800006Y2599994D01*
X-99999Y2599994D01*
X3348992Y4799990D02*
G01*
X3348992Y4448985D01*
X1299994Y2399995D01*
X-99999Y2399995D01*
X3348992Y3999989D02*
G01*
X3348992Y3148990D01*
X3099991Y2899994D01*
X2099990Y2899994D01*
X1399994Y2199995D01*
X-99999Y2199995D01*
X3602992Y3999989D02*
G01*
X3602992Y2802991D01*
X3399990Y2599994D01*
X2099990Y2599994D01*
X1499994Y1999993D01*
X-99999Y1999993D01*
X3856992Y3999989D02*
G01*
X3856992Y2556990D01*
X3599990Y2299995D01*
X2099990Y2299995D01*
X1599994Y1799993D01*
X-99999Y1799993D01*
X4110992Y3999989D02*
G01*
X4110992Y2210996D01*
X3899992Y1999993D01*
X2099990Y1999993D01*
X1699996Y1599994D01*
X-99999Y1599994D01*
X4364992Y3999989D02*
G01*
X4364992Y1964994D01*
X4099991Y1699994D01*
X2099990Y1699994D01*
X1800001Y1399999D01*
X-99999Y1399999D01*
X8499983Y4099989D02*
G01*
X8699982Y4099989D01*
X8799984Y4199991D01*
X9201050Y4199991D01*
X9204375Y4196666D01*
X6142992Y3999989D02*
G01*
X6142992Y3756990D01*
X6799981Y3099996D01*
X8499983Y3099996D01*
X8099983Y4399991D02*
G01*
X9153697Y4399991D01*
X9204375Y4450666D01*
X6396992Y3999989D02*
G01*
X6396992Y3902991D01*
X6899981Y3399995D01*
X8099983Y3399995D01*
X1845053Y1054100D02*
G01*
X2190948Y1399999D01*
X4199991Y1399999D01*
X4618992Y1818995D01*
X4618992Y3999989D01*
X594865Y1054100D02*
G01*
X1845053Y1054100D01*
X4225030Y1054100D02*
G01*
X4872992Y1702054D01*
X4872992Y3999989D01*
X2974850Y1054100D02*
G01*
X4225030Y1054100D01*
X5354822Y1054100D02*
G01*
X5126992Y1281935D01*
X5126992Y3999989D01*
X5888992Y4799990D02*
G01*
X5888992Y4888989D01*
X5999993Y4999989D01*
X6799981Y4999989D01*
X7899981Y3899989D01*
X9161698Y3899989D01*
X9204375Y3942666D01*
X5380992Y4799990D02*
G01*
X5380992Y4880990D01*
X5899993Y5399991D01*
X6999980Y5399991D01*
X7399982Y4999989D01*
X9163050Y4999989D01*
X9204375Y4958666D01*
X5634992Y4799990D02*
G01*
X5634992Y4834889D01*
X5999993Y5199885D01*
X6899907Y5199885D01*
X7395207Y4704585D01*
X9204449Y4704585D01*
X6650992Y4799990D02*
G01*
X7762316Y3688666D01*
X9204375Y3688666D01*
X6396992Y4799990D02*
G01*
X6650992Y4799990D01*
X6142992Y4799990D02*
G01*
X6396992Y4799990D01*
X5634992Y3999989D02*
G01*
X5634992Y4134995D01*
X6142992Y4642995D01*
X6142992Y4799990D01*
X5380992Y3999989D02*
G01*
X5380992Y4180989D01*
X5888992Y4688989D01*
X5888992Y4799990D01*
X594903Y545998D02*
G01*
X-99999Y545998D01*
X6605079Y1053998D02*
G01*
X5354899Y1053998D01*
X6605079Y545998D02*
G01*
X9204375Y3145294D01*
X9204375Y3688666D01*
X5354899Y545998D02*
G01*
X6605079Y545998D01*
X4225081Y545998D02*
G01*
X5354899Y545998D01*
X2974901Y545998D02*
G01*
X4225081Y545998D01*
X1845091Y545998D02*
G01*
X2974901Y545998D01*
X594903Y545998D02*
G01*
X1845091Y545998D01*
D11*
G01*
X3348990Y3999992D03*
G01*
X3602990Y3999992D03*
G01*
X3856990Y3999992D03*
G01*
X4110990Y3999992D03*
G01*
X4364990Y3999992D03*
G01*
X4618990Y3999992D03*
G01*
X4872990Y3999992D03*
G01*
X5126990Y3999992D03*
G01*
X5380990Y3999992D03*
G01*
X5634990Y3999992D03*
G01*
X5888990Y3999992D03*
G01*
X6142990Y3999992D03*
G01*
X6396990Y3999992D03*
G01*
X6650990Y3999992D03*
G01*
X3348990Y4799990D03*
G01*
X3602990Y4799990D03*
G01*
X3856990Y4799990D03*
G01*
X4110990Y4799990D03*
G01*
X4364990Y4799990D03*
G01*
X4618990Y4799990D03*
G01*
X4872990Y4799990D03*
G01*
X5126990Y4799990D03*
G01*
X5380990Y4799990D03*
G01*
X5634990Y4799990D03*
G01*
X5888990Y4799990D03*
G01*
X6142990Y4799990D03*
G01*
X6396990Y4799990D03*
G01*
X6650990Y4799990D03*
G01*
X9204375Y3688664D03*
G01*
X9204375Y3942664D03*
G01*
X9204375Y4196664D03*
G01*
X9204375Y4450664D03*
G01*
X9204375Y4704664D03*
G01*
X9204375Y4958664D03*
D12*
G01*
X5354827Y1054100D03*
G01*
X6605015Y1054100D03*
G01*
X5354827Y546100D03*
G01*
X6605015Y546100D03*
G01*
X2974847Y1054100D03*
G01*
X4225036Y1054100D03*
G01*
X2974847Y546100D03*
G01*
X4225036Y546100D03*
G01*
X594868Y1054100D03*
G01*
X1845055Y1054100D03*
G01*
X594868Y546100D03*
G01*
X1845055Y546100D03*
D11*
G01*
X8499983Y4099991D03*
G01*
X8499983Y3099993D03*
G01*
X8099983Y4399991D03*
G01*
X8099983Y3399993D03*
M02*
